<?xml version="1.0" encoding="iso-8859-1"?>
<!-- Generator: Adobe Illustrator 19.0.0, SVG Export Plug-In . SVG Version: 6.00 Build 0)  -->
<svg version="1.1" id="Capa_1" xmlns="http://www.w3.org/2000/svg" xmlns:xlink="http://www.w3.org/1999/xlink" x="0px" y="0px"
	 viewBox="0 0 499.588 499.588" style="enable-background:new 0 0 499.588 499.588;" xml:space="preserve">
<path style="fill:#FFFFFF;" d="M452.267,130.715H47.321c-13.188,0-23.273,10.085-23.273,23.273v287.806h451.491V153.988
	C475.539,141.576,465.455,130.715,452.267,130.715z"/>
<path style="fill:#193651;" d="M452.267,122.958H47.321c-17.067,0-31.03,13.964-31.03,31.03v287.806
	c0,4.655,3.103,7.758,7.758,7.758h451.491c4.655,0,7.758-3.103,7.758-7.758V153.988
	C483.297,136.921,469.333,122.958,452.267,122.958z M467.782,434.036H31.806V153.988c0-8.533,6.982-15.515,15.515-15.515h404.945
	c8.533,0,15.515,6.982,15.515,15.515L467.782,434.036L467.782,434.036z"/>
<g>
	<rect x="55.079" y="161.745" style="fill:#E1E6E9;" width="389.43" height="264.533"/>
	<path style="fill:#E1E6E9;" d="M314.182,398.352v27.927H168.339v-27.927H7.758v52.751c0,20.945,17.067,38.788,38.788,38.788
		h406.497c20.945,0,38.788-17.067,38.788-38.788v-52.751H314.182z"/>
</g>
<path style="fill:#193651;" d="M491.83,390.594H314.182c-4.655,0-7.758,3.103-7.758,7.758v20.17H176.097v-20.17
	c0-4.655-3.103-7.758-7.758-7.758H7.758c-4.655,0-7.758,3.103-7.758,7.758v52.751c0,25.6,20.945,46.545,46.545,46.545h406.497
	c25.6,0,46.545-20.945,46.545-46.545v-52.751C499.588,394.473,495.709,390.594,491.83,390.594z M484.073,451.103
	c0,17.067-13.964,31.03-31.03,31.03H46.545c-17.067,0-31.03-13.964-31.03-31.03v-44.994h145.067v20.17
	c0,4.655,3.103,7.758,7.758,7.758h145.842c4.655,0,7.758-3.103,7.758-7.758v-20.17h162.133L484.073,451.103L484.073,451.103z"/>
<path style="fill:#FFFFFF;" d="M304.873,180.364l27.152,27.152l-27.152,26.376l-27.151-27.152
	c5.43-3.879,10.085-7.758,14.739-12.412C297.115,190.448,300.994,185.794,304.873,180.364z"/>
<path style="fill:#193651;" d="M304.873,241.648c-2.327,0-3.879-0.776-5.43-2.327l-27.152-27.152
	c-1.552-1.552-2.327-3.879-2.327-6.206s1.552-4.655,3.103-5.43c4.655-3.103,9.309-6.982,13.188-11.636
	c3.879-3.879,7.758-8.533,11.636-13.188c1.552-1.552,3.103-3.103,5.43-3.103s4.655,0.776,6.206,2.327l27.152,27.152
	c3.103,3.103,3.103,7.758,0,10.861l-26.376,26.376C308.752,240.873,306.424,241.648,304.873,241.648z M289.358,207.515
	l15.515,15.515l15.515-15.515L304.873,192c-2.327,3.103-4.655,5.43-7.758,8.533C295.564,202.861,292.461,205.188,289.358,207.515z"
	/>
<rect x="340.981" y="199.983" transform="matrix(-0.7071 0.7071 -0.7071 -0.7071 823.1249 204.0817)" style="fill:#F16051;" width="56.63" height="145.065"/>
<path style="fill:#193651;" d="M400.291,351.03c-2.327,0-3.879-0.776-5.43-2.327l-102.4-102.4c-1.552-1.552-2.327-3.103-2.327-5.43
	c0-2.327,0.776-3.879,2.327-5.43l40.339-40.339c3.103-3.103,7.758-3.103,10.861,0l102.4,102.4c3.103,3.103,3.103,7.758,0,10.861
	l-40.339,40.339C404.17,350.255,402.618,351.03,400.291,351.03z M308.752,240.873l91.539,91.539l29.479-29.479l-91.539-91.539
	L308.752,240.873z"/>
<circle style="fill:#FFFFFF;" cx="215.661" cy="117.527" r="108.606"/>
<path style="fill:#193651;" d="M215.661,234.667L215.661,234.667c-31.03,0-60.509-12.412-82.23-34.133s-34.133-51.2-34.133-82.23
	c0-64.388,51.976-116.364,116.364-116.364c31.03,0,60.509,12.412,82.23,34.133c21.721,20.945,34.133,50.424,34.133,81.455
	C332.024,181.915,280.048,234.667,215.661,234.667L215.661,234.667z M215.661,16.679c-55.855,0-100.848,45.77-100.848,100.848
	c0,27.152,10.861,52.752,29.479,71.37c19.394,19.394,44.218,29.479,71.37,29.479l0,0c55.855,0,100.848-45.77,100.848-100.848
	c0-27.152-10.861-52.752-29.479-71.37C267.636,27.539,242.036,16.679,215.661,16.679z"/>
<circle style="fill:#2EA2DB;" cx="215.661" cy="117.527" r="77.576"/>
<path style="fill:#FFFFFF;" d="M234.279,83.394c-10.085-10.085-27.152-10.085-37.236,0c-2.327,2.327-6.982,2.327-9.309,0
	c-2.327-2.327-2.327-6.982,0-9.309c15.515-15.515,40.339-15.515,55.855,0c2.327,2.327,2.327,6.982,0,9.309
	C240.485,86.497,236.606,86.497,234.279,83.394z"/>
<g>
	<rect x="58.182" y="436.364" style="fill:#193651;" width="15.515" height="15.515"/>
	<rect x="100.073" y="436.364" style="fill:#193651;" width="15.515" height="15.515"/>
	<rect x="384" y="436.364" style="fill:#193651;" width="15.515" height="15.515"/>
	<rect x="425.891" y="436.364" style="fill:#193651;" width="15.515" height="15.515"/>
</g>
<g>
	<rect x="86.109" y="342.497" style="fill:#FFFFFF;" width="134.982" height="15.515"/>
	<rect x="86.109" y="304.485" style="fill:#FFFFFF;" width="134.982" height="15.515"/>
	<rect x="86.109" y="266.473" style="fill:#FFFFFF;" width="134.982" height="15.515"/>
</g>
<g>
</g>
<g>
</g>
<g>
</g>
<g>
</g>
<g>
</g>
<g>
</g>
<g>
</g>
<g>
</g>
<g>
</g>
<g>
</g>
<g>
</g>
<g>
</g>
<g>
</g>
<g>
</g>
<g>
</g>
</svg>
