<?xml version="1.0" encoding="utf-8"?>
<!-- Generator: Adobe Illustrator 21.0.2, SVG Export Plug-In . SVG Version: 6.00 Build 0)  -->
<svg version="1.1" id="Layer_1" xmlns="http://www.w3.org/2000/svg" xmlns:xlink="http://www.w3.org/1999/xlink" x="0px" y="0px"
	 viewBox="0 0 24 24" style="enable-background:new 0 0 24 24;" xml:space="preserve">
<style type="text/css">
	.st0{fill:#00B22D;}
	.st1{fill:#FFFFFF;}
</style>
<polygon class="st0" points="18,1.7 6,1.7 0,12 6,22.4 18,22.4 24,12 "/>
<path class="st1" d="M5.6,12.8c-0.1-0.1-0.1-0.2-0.1-0.3c0-0.1,0-0.2,0.1-0.3l0.7-0.7c0.2-0.2,0.5-0.2,0.7,0l0,0l2.6,2.8
	c0.1,0.1,0.2,0.1,0.3,0l6.4-6.6h0l0,0c0.2-0.2,0.5-0.2,0.7,0l0.7,0.7c0.2,0.2,0.2,0.5,0,0.7l0,0L10.1,17c-0.1,0.1-0.2,0.1-0.3,0.1
	s-0.2,0-0.3-0.1l-3.7-4C5.7,13,5.6,12.8,5.6,12.8z"/>
</svg>
