<?xml version="1.0" encoding="utf-8"?>
<!-- Generator: Adobe Illustrator 21.0.2, SVG Export Plug-In . SVG Version: 6.00 Build 0)  -->
<svg version="1.1" id="Layer_1" xmlns="http://www.w3.org/2000/svg" xmlns:xlink="http://www.w3.org/1999/xlink" x="0px" y="0px"
	 viewBox="0 0 512 512" style="enable-background:new 0 0 512 512;" xml:space="preserve">
<style type="text/css">
	.st0{fill:#1565BC;}
	.st1{fill:#03213F;}
	.st2{fill:#FFFFFF;}
	.st3{fill:#F2F6FC;}
	.st4{fill:#8BB77E;}
	.st5{fill:#54A541;}
	.st6{fill:#A57F65;}
	.st7{fill:#7C3D1E;}
	.st8{fill:#EAD642;}
</style>
<path class="st0" d="M512,256c0,141.4-114.6,256-256,256S0,397.4,0,256S114.6,0,256,0S512,114.6,512,256z"/>
<path class="st1" d="M512,256c0-11.2-0.7-22.2-2.1-33.1L382.9,96l-2.6,43.1l-184.2,5.5L147.6,96l-2.8,50.1L96,147.6l46.2,46.2
	L131.9,382L96,382.9l126.9,126.9c10.8,1.4,21.9,2.1,33.1,2.1C397.4,512,512,397.4,512,256z"/>
<path class="st2" d="M159.1,163.3h193.8v185.4H159.1V163.3z"/>
<path class="st3" d="M255.6,163.3h97.3v185.4h-97.3V163.3z"/>
<path class="st4" d="M174.9,185h162.3v142H174.9V185z"/>
<path class="st5" d="M255.6,185h81.5v142h-81.5V185z"/>
<path class="st6" d="M337.1,303.9l-57.1-68.2l-40,47.7l-23-27.5l-42.2,50.4V327h162.3V303.9z"/>
<path class="st7" d="M337.1,303.9l-57.1-68.2l-24.4,29.2V327h81.5V303.9z"/>
<path class="st8" d="M221.1,218.7c0,11.5-9.4,20.9-20.9,20.9c-11.5,0-20.9-9.4-20.9-20.9c0-11.5,9.4-20.9,20.9-20.9
	C211.7,197.8,221.1,207.1,221.1,218.7z"/>
</svg>
