<?xml version="1.0" encoding="utf-8"?>
<!-- Generator: Adobe Illustrator 21.0.2, SVG Export Plug-In . SVG Version: 6.00 Build 0)  -->
<svg version="1.1" id="Layer_1" xmlns="http://www.w3.org/2000/svg" xmlns:xlink="http://www.w3.org/1999/xlink" x="0px" y="0px"
	 viewBox="0 0 300 300" style="enable-background:new 0 0 300 300;" xml:space="preserve">
<style type="text/css">
	.st0{fill:#E9E8E9;}
</style>
<g>
	<path class="st0" d="M593.8,36.5h-259c-8.8,0-15.8,7-15.8,15.8V238c0,8.2,7,15.2,15.8,15.2h259.5c8.8,0,15.8-7,15.8-15.8V52.3
		C609.7,43.5,602.6,36.5,593.8,36.5z M330.8,237.4V52.3c0-2.3,1.8-4.1,4.1-4.1h259.5c2.3,0,4.1,1.8,4.1,4.1v114.2l-45.1-63.9
		c-1.2-1.8-2.9-2.3-4.7-2.3c-1.8,0-3.5,1.2-4.7,2.9l-40.4,63.3l-29.9-40.4c-1.2-1.8-2.9-2.3-4.7-2.3c-1.8,0-3.5,1.2-4.7,2.3
		L380,241.5h-45.1C332.5,241.5,330.8,239.8,330.8,237.4z M593.8,241.5H394.6L469,139.6l29.9,40.4c1.2,1.8,2.9,2.3,4.7,2.3
		c1.8,0,3.5-1.2,4.7-2.9l39.8-63.3l48.6,70.3v50.4C597.9,239.8,596.2,241.5,593.8,241.5z"/>
	<path class="st0" d="M395.2,151.3c17.6,0,31.6-14.1,31.6-31.6S412.8,88,395.2,88s-31.6,14.1-31.6,31.6
		C363,137.3,377.6,151.3,395.2,151.3z M395.2,99.2c11.1,0,19.9,8.8,19.9,19.9s-8.8,19.9-19.9,19.9c-11.1,0-19.9-8.8-19.9-19.9
		C374.7,108.5,384.1,99.2,395.2,99.2z"/>
</g>
<g>
	<path class="st0" d="M-27.3,135.3h-160.8c-9,0-16,7-16,16V224c0,9,7,16,16,16h160.8c9,0,16-7,16-16v-73.2
		C-11.3,142.3-18.3,135.3-27.3,135.3z M-21.3,223.5c0,3.5-2.5,6-6,6h-160.8c-3.5,0-6-2.5-6-6v-72.7c0-3.5,2.5-6,6-6h160.8
		c3.5,0,6,2.5,6,6V223.5z"/>
	<path class="st0" d="M-155.6,164.4h-15c-2.5,0-4,2-4,4v42.1c0,2.5,2,4,4,4c2.5,0,4-2,4-4v-13h10c12,0,20-7,20-17
		C-136.6,170.9-144.1,164.4-155.6,164.4z M-145.1,180.9c0,5.5-4.5,9-11.5,9h-10v-18h10.5C-153.1,172.4-145.1,172.9-145.1,180.9z
		 M-112,164.4h-13.5c-2.5,0-4,2-4,4v42.1c0,2.5,2,4,4,4h14C-96,214.5-85,204-85,189.4C-85.5,174.9-96.5,164.4-112,164.4z
		 M-112,206.5h-9.5v-34.6h9.5c10.5,0,18,7,18,17.5C-94,199.5-101.5,206.5-112,206.5z M-43.9,164.4h-29.1c-2.5,0-4,2-4,4v42.1
		c0,2.5,2,4,4,4c2.5,0,4-2,4-4v-16.5h22c2,0,4-2,4-4s-2-4-4-4h-22v-14h25.1c2,0,4-2,4-4C-39.9,165.9-41.4,164.4-43.9,164.4z"/>
	<path class="st0" d="M-65.9,248.6c-3,0-5,2-5,5v8.5c0,2-1.5,3.5-3.5,3.5h-173.4c-2,0-3.5-1.5-3.5-3.5V39.6c0.5-2,2-3.5,3.5-3.5
		h133.3v37.6c0,3,2,5,5,5h38.1v40.6c0,3,2,5,5,5c3,0,5-2,5-5V73.7c0-3.5-1.5-7-4-9.5l-35.1-34.6c-2-2-5.5-3.5-9-3.5h-138.3
		c-7,0-13,6-13,13.5v223c0,7.5,6,13.5,13.5,13.5h173.4c7.5,0,13.5-6,13.5-13.5v-8.5C-60.9,250.6-63.4,248.6-65.9,248.6z M-74.9,68.7
		h-29.6V39.6L-74.9,68.7z"/>
</g>
<g>
	<path class="st0" d="M101.1,144.9c0,9.1,7.4,17.1,17.1,17.1c9.1,0,17.1-7.4,17.1-17.1c0-9.1-7.4-17.1-17.1-17.1
		C109.1,128.3,101.1,135.7,101.1,144.9z M123.4,144.9c0,2.9-2.3,5.7-5.7,5.7s-5.7-2.3-5.7-5.7c0-2.9,2.3-5.7,5.7-5.7
		S123.4,142,123.4,144.9z M175.4,175.7c17.1,0,30.8-13.7,30.8-30.8S192.5,114,175.4,114s-30.8,13.7-30.8,30.8
		S158.3,175.7,175.4,175.7z M175.4,126c10.9,0,19.4,8.6,19.4,19.4s-8.6,19.4-19.4,19.4s-19.4-8.6-19.4-19.4
		C156,134.6,164.5,126,175.4,126z M61.2,114.6c-17.1,0-30.8,13.7-30.8,30.8s13.7,30.8,30.8,30.8S92,162.6,92,145.4
		S77.7,114.6,61.2,114.6z M61.2,164.3c-10.9,0-19.4-8.6-19.4-19.4c0-10.9,8.6-19.4,19.4-19.4s19.4,8.6,19.4,19.4
		C80,155.7,71.5,164.3,61.2,164.3z M118.3,171.7c-17.1,0-30.8,13.7-30.8,30.8s13.7,30.8,30.8,30.8s30.8-13.7,30.8-30.8
		C148.5,185.4,134.8,171.7,118.3,171.7z M118.3,221.4c-10.9,0-19.4-8.6-19.4-19.4s8.6-19.4,19.4-19.4s19.4,8.6,19.4,19.4
		C137.1,212.8,128.6,221.4,118.3,221.4z M118.3,118.6c17.1,0,30.8-13.7,30.8-30.8s-13.7-30.8-30.8-30.8S87.4,70.6,87.4,87.8
		S101.1,118.6,118.3,118.6z M118.3,68.9c10.9,0,19.4,8.6,19.4,19.4s-8.6,19.4-19.4,19.4s-19.4-8.6-19.4-19.4S107.4,68.9,118.3,68.9z
		"/>
	<path class="st0" d="M275.9,224.8c-18.8-13.1-53.1-8.6-81.1-1.7c20-20,32.6-47.4,32.6-77.7c0-60.5-49.1-109.1-109.1-109.1
		C57.7,36.4,9.2,85.5,9.2,145.4c0,60.5,49.1,109.1,109.1,109.1c12,0,23.4-1.7,33.7-5.7h0.6c0.6,0,1.1-0.6,2.3-0.6
		c2.3-1.1,5.1-1.7,7.4-2.9c29.1-10.9,85.1-26.8,107.4-11.4c6.9,5.1,10.3,12.6,9.7,24c0,3.4,2.3,5.7,5.7,5.7c2.9,0,5.7-2.3,5.7-5.7
		C291.3,243.1,286.8,231.7,275.9,224.8L275.9,224.8z M20.1,144.9c0-54.3,44-97.7,97.7-97.7c54.3,0,97.7,44,97.7,97.7
		c0,40-24,74.2-58.3,89.7c-3.4,1.1-5.7,2.3-7.4,2.9c-9.7,3.4-20.6,5.1-32,5.1C64,243.1,20.1,199.1,20.1,144.9z"/>
</g>
</svg>
