<svg width="85" height="21" viewBox="0 0 85 21" xmlns="http://www.w3.org/2000/svg"><title>Group</title><g fill="none" fill-rule="evenodd"><g fill-rule="nonzero"><path d="M5.03 19.75l.362-2.25-.806-.02H.735L3.41.876a.218.218 0 0 1 .217-.181h6.494c2.156 0 3.644.439 4.42 1.305.365.407.597.831.709 1.299.118.49.12 1.076.005 1.79l-.009.053V5.6l.365.202c.306.159.55.341.737.55.311.347.513.789.598 1.313.088.538.059 1.179-.085 1.905-.166.834-.435 1.561-.798 2.156a4.472 4.472 0 0 1-1.263 1.355 5.18 5.18 0 0 1-1.702.75 8.653 8.653 0 0 1-2.127.241h-.505c-.361 0-.712.128-.988.356a1.49 1.49 0 0 0-.515.9l-.038.202-.64 3.966-.029.146c-.007.046-.02.07-.04.085a.108.108 0 0 1-.066.023H5.03z" fill="#253B80"/><path d="M15.956 5.194c-.02.121-.041.245-.066.372-.857 4.303-3.786 5.789-7.528 5.789H6.456a.92.92 0 0 0-.914.767l-.976 6.053-.276 1.716a.48.48 0 0 0 .481.551h3.38c.4 0 .74-.284.803-.67l.033-.168.636-3.95.04-.218a.807.807 0 0 1 .804-.672h.505c3.274 0 5.837-1.3 6.586-5.064.313-1.572.151-2.885-.677-3.808a3.223 3.223 0 0 0-.925-.698z" fill="#179BD7"/><path d="M15.06 4.844a6.876 6.876 0 0 0-.832-.18 10.81 10.81 0 0 0-1.68-.12h-5.09a.823.823 0 0 0-.35.077.796.796 0 0 0-.452.594l-1.083 6.711-.031.196a.92.92 0 0 1 .914-.767h1.906c3.742 0 6.671-1.487 7.528-5.789a9.79 9.79 0 0 0 .066-.372c-.216-.113-.473-.37-.725-.452-.063-.02-.105.121-.17.102z" fill="#222D65"/><path d="M6.656 5.215a.794.794 0 0 1 .451-.593.825.825 0 0 1 .351-.078h5.09c.603 0 1.166.039 1.68.12a6.876 6.876 0 0 1 1.025.24c.253.081.487.178.704.29.255-1.59-.002-2.673-.88-3.653C14.106.462 12.36 0 10.122 0H3.629a.922.922 0 0 0-.917.768L.007 17.544a.55.55 0 0 0 .55.631h4.01l1.006-6.249 1.083-6.71z" fill="#253B80"/></g><path d="M-2 0h22v22H-2zm22 0h22v22H20zm22 0h22v22H42zm22 0h22v22H64z"/><path fill="#FF4800" d="M65 0h20v20H65z"/><path d="M73.67 9.67c-1.175 1.137-2.274 2.34-3.232 3.651a40.207 40.207 0 0 0-1.689 2.52c-.267.428-.439.912-.657 1.37-.034.07-.11.187-.136.18-.094-.028-.229-.083-.254-.153-.059-.18-.118-.383-.083-.56.19-.962.601-1.846 1.062-2.706a21.416 21.416 0 0 1 3.323-4.58 49.937 49.937 0 0 1 2.313-2.296 16.606 16.606 0 0 1 4.016-2.781 8.181 8.181 0 0 1 2.157-.725c.126-.022.252-.052.376-.079 0 0 1.56-.289 2.24.84 0 0 .186.275.15.366-.043.106-.222.208-.354.226a15.792 15.792 0 0 0-3.616.955 21.27 21.27 0 0 0-1.97.924c-1.4.725-2.537 1.772-3.647 2.848zm-5.152-4.746a4.591 4.591 0 0 1-.039-.388c-.01-.148.063-.22.175-.174a.777.777 0 0 1 .3.213 5.375 5.375 0 0 1 1.215 2.922c.022.218.032.438.048.657a6.929 6.929 0 0 1-.32 1.981c-.02.068-.064.13-.104.188-.094.143-.195.155-.265 0a3.031 3.031 0 0 1-.216-.648 66.825 66.825 0 0 1-.378-2.078c-.146-.89-.279-1.781-.416-2.673z" fill="#FFF"/><g fill-rule="nonzero"><path d="M37.956 5.194c-.02.121-.041.245-.066.372-.857 4.303-3.786 5.789-7.528 5.789h-1.906a.92.92 0 0 0-.914.767l-.976 6.053-.276 1.716a.48.48 0 0 0 .481.551h3.38c.4 0 .74-.284.803-.67l.033-.168.636-3.95.04-.218a.807.807 0 0 1 .804-.672h.505c3.274 0 5.837-1.3 6.586-5.064.313-1.572.151-2.885-.677-3.808a3.223 3.223 0 0 0-.925-.698z" fill="#DDD"/><path d="M37.06 4.844a6.876 6.876 0 0 0-.832-.18 10.81 10.81 0 0 0-1.68-.12h-5.09a.823.823 0 0 0-.35.077.796.796 0 0 0-.452.594l-1.083 6.711-.031.196a.92.92 0 0 1 .914-.767h1.906c3.742 0 6.671-1.487 7.528-5.789a9.79 9.79 0 0 0 .066-.372c-.216-.113-.473-.37-.725-.452-.063-.02-.105.121-.17.102z" fill="#CCC"/><path d="M28.656 5.215s.217-.483.451-.593a.825.825 0 0 1 .351-.078h5.09c.603 0 1.166.039 1.68.12a6.876 6.876 0 0 1 1.025.24c.253.081.487.178.704.29.255-1.59-.002-2.673-.88-3.653C36.106.462 34.36 0 32.122 0h-6.494a.922.922 0 0 0-.917.768l-2.705 16.776a.55.55 0 0 0 .55.631h4.01l1.006-6.249 1.083-6.71z" fill="#B2B2B2"/></g><path fill="#CCC" d="M43 0h20v20H43z"/><path d="M51.67 9.67c-1.175 1.137-2.274 2.34-3.232 3.651a40.207 40.207 0 0 0-1.689 2.52c-.267.428-.439.912-.657 1.37-.034.07-.11.187-.136.18-.094-.028-.229-.083-.254-.153-.059-.18-.118-.383-.083-.56.19-.962.601-1.846 1.062-2.706a21.416 21.416 0 0 1 3.323-4.58 49.937 49.937 0 0 1 2.313-2.296 16.606 16.606 0 0 1 4.016-2.781 8.181 8.181 0 0 1 2.157-.725c.126-.022.252-.052.376-.079 0 0 1.56-.289 2.24.84 0 0 .186.275.15.366-.043.106-.222.208-.354.226a15.792 15.792 0 0 0-3.616.955 21.27 21.27 0 0 0-1.97.924c-1.4.725-2.537 1.772-3.647 2.848zm-5.152-4.746a4.591 4.591 0 0 1-.039-.388c-.01-.148.063-.22.175-.174a.777.777 0 0 1 .3.213 5.375 5.375 0 0 1 1.215 2.922c.022.218.032.438.048.657a6.929 6.929 0 0 1-.32 1.981c-.02.068-.064.13-.104.188-.094.143-.195.155-.265 0a3.031 3.031 0 0 1-.216-.648 66.825 66.825 0 0 1-.378-2.078c-.146-.89-.279-1.781-.416-2.673z" fill="#FFF"/></g></svg>