<?xml version="1.0" encoding="utf-8"?>
<!-- Generator: Adobe Illustrator 21.0.2, SVG Export Plug-In . SVG Version: 6.00 Build 0)  -->
<svg version="1.1" id="Layer_1" xmlns="http://www.w3.org/2000/svg" xmlns:xlink="http://www.w3.org/1999/xlink" x="0px" y="0px"
	 viewBox="0 0 300 300" style="enable-background:new 0 0 300 300;" xml:space="preserve">
<style type="text/css">
	.st0{fill:#E9E8E9;}
</style>
<g>
	<path class="st0" d="M279.2,41.6h-259c-8.8,0-15.8,7-15.8,15.8v185.7c0,8.2,7,15.2,15.8,15.2h259.5c8.8,0,15.8-7,15.8-15.8V57.4
		C295,48.6,288,41.6,279.2,41.6z M16.1,242.6V57.4c0-2.3,1.8-4.1,4.1-4.1h259.5c2.3,0,4.1,1.8,4.1,4.1v114.2l-45.1-63.9
		c-1.2-1.8-2.9-2.3-4.7-2.3s-3.5,1.2-4.7,2.9L189,171.7l-29.9-40.4c-1.2-1.8-2.9-2.3-4.7-2.3s-3.5,1.2-4.7,2.3L65.3,246.7H20.2
		C17.9,246.7,16.1,244.9,16.1,242.6z M279.2,246.7H80l74.4-101.9l29.9,40.4c1.2,1.8,2.9,2.3,4.7,2.3s3.5-1.2,4.7-2.9l39.8-63.3
		l48.6,70.3V242C283.3,244.9,281.5,246.7,279.2,246.7z"/>
	<path class="st0" d="M80.6,156.4c17.6,0,31.6-14.1,31.6-31.6S98.1,93.2,80.6,93.2s-31.6,14.1-31.6,31.6
		C48.3,142.4,63,156.4,80.6,156.4z M80.6,104.3c11.1,0,19.9,8.8,19.9,19.9s-8.8,19.9-19.9,19.9s-19.9-8.8-19.9-19.9
		C60.1,113.7,69.4,104.3,80.6,104.3z"/>
</g>
</svg>
