<?xml version="1.0" encoding="utf-8"?>
<!-- Generator: Adobe Illustrator 21.0.2, SVG Export Plug-In . SVG Version: 6.00 Build 0)  -->
<svg version="1.1" id="Layer_1" xmlns="http://www.w3.org/2000/svg" xmlns:xlink="http://www.w3.org/1999/xlink" x="0px" y="0px"
	 viewBox="0 0 300 300" style="enable-background:new 0 0 300 300;" xml:space="preserve">
<style type="text/css">
	.st0{fill:#E9E8E9;}
</style>
<g>
	<path class="st0" d="M593.8,36.5h-259c-8.8,0-15.8,7-15.8,15.8V238c0,8.2,7,15.2,15.8,15.2h259.5c8.8,0,15.8-7,15.8-15.8V52.3
		C609.7,43.5,602.6,36.5,593.8,36.5z M330.8,237.4V52.3c0-2.3,1.8-4.1,4.1-4.1h259.5c2.3,0,4.1,1.8,4.1,4.1v114.2l-45.1-63.9
		c-1.2-1.8-2.9-2.3-4.7-2.3c-1.8,0-3.5,1.2-4.7,2.9l-40.4,63.3l-29.9-40.4c-1.2-1.8-2.9-2.3-4.7-2.3c-1.8,0-3.5,1.2-4.7,2.3
		L380,241.5h-45.1C332.5,241.5,330.8,239.8,330.8,237.4z M593.8,241.5H394.6L469,139.6l29.9,40.4c1.2,1.8,2.9,2.3,4.7,2.3
		c1.8,0,3.5-1.2,4.7-2.9l39.8-63.3l48.6,70.3v50.4C597.9,239.8,596.2,241.5,593.8,241.5z"/>
	<path class="st0" d="M395.2,151.3c17.6,0,31.6-14.1,31.6-31.6S412.8,88,395.2,88s-31.6,14.1-31.6,31.6
		C363,137.3,377.6,151.3,395.2,151.3z M395.2,99.2c11.1,0,19.9,8.8,19.9,19.9s-8.8,19.9-19.9,19.9c-11.1,0-19.9-8.8-19.9-19.9
		C374.7,108.5,384.1,99.2,395.2,99.2z"/>
</g>
<g>
	<path class="st0" d="M258.7,134.2H97.9c-9,0-16,7-16,16v72.7c0,9,7,16,16,16h160.8c9,0,16-7,16-16v-73.2
		C274.8,141.2,267.8,134.2,258.7,134.2z M264.7,222.4c0,3.5-2.5,6-6,6H97.9c-3.5,0-6-2.5-6-6v-72.7c0-3.5,2.5-6,6-6h160.8
		c3.5,0,6,2.5,6,6V222.4z"/>
	<path class="st0" d="M130.5,163.3h-15c-2.5,0-4,2-4,4v42.1c0,2.5,2,4,4,4c2.5,0,4-2,4-4v-13h10c12,0,20-7,20-17
		C149.5,169.8,142,163.3,130.5,163.3z M141,179.8c0,5.5-4.5,9-11.5,9h-10v-18H130C133,171.3,141,171.8,141,179.8z M174.1,163.3
		h-13.5c-2.5,0-4,2-4,4v42.1c0,2.5,2,4,4,4h14c15.5,0,26.6-10.5,26.6-25.1C200.6,173.8,189.6,163.3,174.1,163.3z M174.1,205.4h-9.5
		v-34.6h9.5c10.5,0,18,7,18,17.5C192.1,198.4,184.6,205.4,174.1,205.4z M242.2,163.3h-29.1c-2.5,0-4,2-4,4v42.1c0,2.5,2,4,4,4
		c2.5,0,4-2,4-4v-16.5h22c2,0,4-2,4-4s-2-4-4-4h-22v-14h25.1c2,0,4-2,4-4C246.2,164.8,244.7,163.3,242.2,163.3z"/>
	<path class="st0" d="M220.2,247.5c-3,0-5,2-5,5v8.5c0,2-1.5,3.5-3.5,3.5H38.3c-2,0-3.5-1.5-3.5-3.5V38.5c0.5-2,2-3.5,3.5-3.5h133.3
		v37.6c0,3,2,5,5,5h38.1v40.6c0,3,2,5,5,5c3,0,5-2,5-5V72.6c0-3.5-1.5-7-4-9.5l-35.1-34.6c-2-2-5.5-3.5-9-3.5H38.3
		c-7,0-13,6-13,13.5v223c0,7.5,6,13.5,13.5,13.5h173.4c7.5,0,13.5-6,13.5-13.5V253C225.2,249.5,222.7,247.5,220.2,247.5z
		 M211.1,67.6h-29.6V38.5L211.1,67.6z"/>
</g>
</svg>
