<svg height="477.60001pt" viewBox="0 0 477.60001 477.60001" width="477.60001pt" xmlns="http://www.w3.org/2000/svg"><path d="m477.601562 238.800781c0 131.886719-106.914062 238.800781-238.800781 238.800781s-238.800781-106.914062-238.800781-238.800781 106.914062-238.800781 238.800781-238.800781 238.800781 106.914062 238.800781 238.800781zm0 0" fill="#382b73"/><path d="m445.398438 238.800781c0 114.101563-92.496094 206.597657-206.597657 206.597657-114.101562 0-206.597656-92.496094-206.597656-206.597657 0-114.101562 92.496094-206.597656 206.597656-206.597656 114.101563 0 206.597657 92.496094 206.597657 206.597656zm0 0" fill="#473080"/><path d="m174.644531 250.996094c.039063.691406.179688 1.300781.394531 1.816406.144532.34375.324219.648438.527344.90625.308594.390625.671875.675781 1.070313.855469.152343.066406.304687.113281.464843.144531.261719.058594.53125.074219.804688.039062.292969-.039062.585938-.132812.878906-.285156.4375-.230468.863282-.585937 1.257813-1.085937l31.644531-40.332031.453125 4.328124c.078125.71875.324219 1.398438.710937 2.007813.289063.460937.65625.882813 1.085938 1.257813.289062.25.601562.480468.941406.683593.171875.101563.347656.199219.527344.289063 1.089844.542968 2.378906.851562 3.75.851562h4.441406l1.921875 3.796875c.839844 1.660157 2.542969 2.707031 4.40625 2.707031h5.152344v5.410157c0 .253906.027344.507812.078125.75.050781.242187.121094.476562.214844.699219.050781.109374.101562.21875.15625.324218.628906 1.160156 1.859375 1.949219 3.273437 1.949219 1.410157 0 2.640625-.789063 3.269531-1.949219.058594-.105468.113282-.214844.15625-.324218.09375-.222657.167969-.457032.21875-.699219.046876-.242188.074219-.492188.074219-.75v-5.410157h5.152344c1.863281 0 3.566406-1.046874 4.40625-2.707031l1.925781-3.796875h4.4375c1.371094 0 2.660156-.3125 3.75-.851562.179688-.089844.355469-.183594.527344-.289063.339844-.207031.65625-.433593.941406-.683593.429688-.375.796875-.796876 1.085938-1.257813.386718-.609375.632812-1.289063.710937-2.007813l.453125-4.328124 31.644532 40.332031c.394531.5.820312.859375 1.257812 1.085937.292969.152344.585938.242188.878906.285156.273438.035157.542969.019532.804688-.039062.300781-.0625.585937-.179688.851562-.359375.25-.164063.480469-.378906.683594-.640625.203125-.257812.382812-.5625.527344-.90625.21875-.515625.359375-1.125.398437-1.816406l1.949219-34.609375.273438-13.652344c.058593-2.871094-.886719-5.671875-2.667969-7.921875l-30.640625-38.648438 2.234375-21.363281c3.117187-16.941406-3.089844-34.125-17.0625-47.238281l-12.695313-11.914062c-2.894531-2.714844-8.199218-2.714844-11.09375 0l-12.699218 11.914062c-13.96875 13.113281-20.175782 30.296875-17.0625 47.238281l2.238281 21.363281-30.640625 38.648438c-1.785156 2.25-2.726563 5.050781-2.667969 7.921875l.269531 13.652344zm0 0" fill="#382b73"/><path d="m340.953125 316.761719-14.753906-26.375c-.792969-1.414063-2.285157-2.289063-3.90625-2.289063h-69.738281c5.171874-9.054687 9.824218-18.753906 9.824218-24.363281 0-12.320313-10.070312-22.359375-22.667968-22.824219-.300782-.015625-.605469-.023437-.910157-.023437-.308593 0-.609375.007812-.914062.023437-12.597657.464844-22.664063 10.503906-22.664063 22.824219 0 5.609375 4.652344 15.308594 9.824219 24.363281h-66.039063c-1.460937 0-2.828124.714844-3.667968 1.910156l-18.574219 26.5625c-1.039063 1.484376.023437 3.523438 1.832031 3.523438h18.078125v79.421875c0 2.46875 2.003907 4.472656 4.472657 4.472656h159.296874c2.46875 0 4.472657-2.003906 4.472657-4.472656v-79.421875h14.085937c1.707032 0 2.785156-1.839844 1.949219-3.332031zm0 0" fill="#382b73"/><path d="m247.675781 216.976562h-17.75c-1.863281 0-3.566406-1.046874-4.40625-2.707031l-1.921875-3.796875h30.40625l-1.925781 3.796875c-.839844 1.660157-2.542969 2.707031-4.402344 2.707031zm0 0" fill="#f6ca14"/><path d="m258.441406 210.472656h-39.285156c-3.664062 0-6.710938-2.210937-7.015625-5.089844l-8.648437-82.582031c-3.113282-16.945312 3.09375-34.128906 17.0625-47.238281l12.699218-11.914062c2.894532-2.714844 8.199219-2.714844 11.09375 0l12.699219 11.914062c13.972656 13.109375 20.175781 30.296875 17.0625 47.238281l-8.648437 82.582031c-.304688 2.878907-3.355469 5.089844-7.019532 5.089844zm0 0" fill="#e6e7e8"/><path d="m251.765625 210.472656h-25.925781c-2.417969 0-4.433594-2.210937-4.632813-5.089844l-5.707031-82.582031c-2.054688-16.945312 2.039062-34.128906 11.261719-47.238281l8.378906-11.914062c1.910156-2.714844 5.414063-2.714844 7.324219 0l8.378906 11.914062c9.21875 13.109375 13.316406 30.296875 11.261719 47.238281l-5.707031 82.582031c-.203126 2.878907-2.214844 5.089844-4.632813 5.089844zm0 0" fill="#fff"/><path d="m265.457031 200.113281c-.300781 2.875-3.351562 5.089844-7.015625 5.089844h-39.285156c-3.664062 0-6.710938-2.214844-7.015625-5.089844v5.269531c.304687 2.878907 3.351563 5.089844 7.015625 5.089844h39.285156c3.664063 0 6.714844-2.210937 7.015625-5.089844zm0 0" fill="#d0d2d3"/><path d="m256.140625 98.851562c0 9.574219-7.765625 17.339844-17.339844 17.339844-9.578125 0-17.339843-7.765625-17.339843-17.339844 0-9.578124 7.761718-17.339843 17.339843-17.339843 9.574219 0 17.339844 7.761719 17.339844 17.339843zm0 0" fill="#e7ad27"/><path d="m256.140625 96.953125c0 9.574219-7.765625 17.339844-17.339844 17.339844-9.578125 0-17.339843-7.765625-17.339843-17.339844 0-9.578125 7.761718-17.339844 17.339843-17.339844 9.574219 0 17.339844 7.761719 17.339844 17.339844zm0 0" fill="#fddd3a"/><path d="m251.0625 96.953125c0 6.769531-5.492188 12.261719-12.261719 12.261719-6.773437 0-12.261719-5.492188-12.261719-12.261719 0-6.773437 5.488282-12.261719 12.261719-12.261719 6.769531 0 12.261719 5.488282 12.261719 12.261719zm0 0" fill="#ee5a9c"/><path d="m238.800781 84.691406c-6.773437 0-12.261719 5.488282-12.261719 12.261719 0 .191406.003907.378906.011719.570313.300781-6.507813 5.667969-11.695313 12.246094-11.695313 6.582031 0 11.949219 5.1875 12.246094 11.695313.007812-.1875.015625-.378907.015625-.570313.003906-6.773437-5.488282-12.261719-12.257813-12.261719zm0 0" fill="#e43c90"/><path d="m248.441406 96.953125c0 5.324219-4.316406 9.640625-9.640625 9.640625s-9.640625-4.316406-9.640625-9.640625 4.316406-9.640625 9.640625-9.640625 9.640625 4.316406 9.640625 9.640625zm0 0" fill="#e43c90"/><path d="m238.800781 226.105469c-2.054687 0-3.722656-1.664063-3.722656-3.71875v-76.59375c0-2.054688 1.667969-3.722657 3.722656-3.722657 2.054688 0 3.71875 1.667969 3.71875 3.722657v76.59375c0 2.054687-1.664062 3.71875-3.71875 3.71875zm0 0" fill="#ee5a9c"/><path d="m238.800781 142.070312c-2.054687 0-3.722656 1.664063-3.722656 3.71875v8.035157c0-2.050781 1.667969-3.71875 3.722656-3.71875 2.054688 0 3.71875 1.667969 3.71875 3.71875v-8.035157c0-2.054687-1.664062-3.71875-3.71875-3.71875zm0 0" fill="#ef6ea8"/><path d="m238.800781 211.820312c-2.054687 0-3.722656-1.667968-3.722656-3.71875v14.285157c0 2.054687 1.667969 3.722656 3.722656 3.722656 2.054688 0 3.71875-1.667969 3.71875-3.722656v-14.285157c0 2.050782-1.664062 3.71875-3.71875 3.71875zm0 0" fill="#e43c90"/><path d="m215.222656 251.734375c0-12.617187 10.554688-22.847656 23.578125-22.847656 13.019531 0 23.578125 10.230469 23.578125 22.847656 0 12.621094-23.578125 46.003906-23.578125 46.003906s-23.578125-33.382812-23.578125-46.003906zm0 0" fill="#ee5a9c"/><path d="m221.066406 246.070312c0-9.492187 7.941406-17.183593 17.734375-17.183593s17.730469 7.691406 17.730469 17.183593c0 9.488282-17.730469 34.59375-17.730469 34.59375s-17.734375-25.105468-17.734375-34.59375zm0 0" fill="#e43c90"/><path d="m228.378906 238.984375c0-5.574219 4.664063-10.097656 10.421875-10.097656 5.753907 0 10.417969 4.519531 10.417969 10.097656s-10.417969 20.332031-10.417969 20.332031-10.421875-14.753906-10.421875-20.332031zm0 0" fill="#a62973"/><path d="m297.554688 241.390625-33.164063-42.273437c-.867187-1.105469-1.335937-2.679688-1.25-4.207032l2.769531-49.058594c.207032-3.683593 3.308594-5.058593 5.398438-2.390624l31.203125 39.351562c1.78125 2.25 2.726562 5.050781 2.667969 7.921875l-.273438 13.652344-1.949219 34.609375c-.207031 3.6875-3.308593 5.058594-5.402343 2.394531zm0 0" fill="#ee5a9c"/><path d="m303.574219 227.773438c-.207031 3.683593-3.308594 5.058593-5.398438 2.390624l-33.167969-42.273437c-.796874-1.011719-1.25-2.425781-1.25-3.835937l-.613281 10.855468c-.085937 1.527344.382813 3.101563 1.246094 4.207032l33.167969 42.273437c2.089844 2.664063 5.191406 1.292969 5.398437-2.394531zm0 0" fill="#e43c90"/><path d="m265.59375 151.25 24.984375 27.886719c.878906.984375.796875 2.492187-.1875 3.375-.980469.878906-2.492187.792969-3.371094-.1875l-21.804687-24.339844zm0 0" fill="#e43c90"/><path d="m287.199219 179.0625c.878906.980469 2.390625 1.066406 3.371093.183594.019532-.015625.03125-.035156.050782-.050782.828125.984376.734375 2.449219-.230469 3.316407-.980469.878906-2.492187.792969-3.371094-.1875l-21.804687-24.339844.183594-3.257813zm0 0" fill="#ef6ea8"/><path d="m264.714844 166.847656 30.289062 33.808594c.878906.984375.796875 2.492188-.1875 3.375-.980468.878906-2.492187.792969-3.371094-.1875l-27.109374-30.265625zm0 0" fill="#e43c90"/><path d="m291.621094 200.691406c.878906.984375 2.390625 1.066406 3.371094.1875.035156-.03125.0625-.070312.097656-.105468.777344.984374.675781 2.410156-.269532 3.257812-.980468.878906-2.492187.796875-3.371093-.183594l-27.113281-30.269531.175781-3.144531zm0 0" fill="#ef6ea8"/><path d="m180.042969 241.390625 33.167969-42.273437c.863281-1.105469 1.332031-2.679688 1.246093-4.207032l-2.765625-49.058594c-.210937-3.683593-3.3125-5.058593-5.402344-2.390624l-31.199218 39.351562c-1.785156 2.25-2.726563 5.050781-2.667969 7.921875l.269531 13.652344 1.953125 34.609375c.207031 3.6875 3.308594 5.058594 5.398438 2.394531zm0 0" fill="#ee5a9c"/><path d="m174.027344 227.773438c.207031 3.683593 3.308594 5.058593 5.398437 2.390624l33.167969-42.273437c.792969-1.011719 1.25-2.425781 1.25-3.835937l.613281 10.855468c.085938 1.527344-.382812 3.101563-1.25 4.207032l-33.164062 42.273437c-2.09375 2.664063-5.191407 1.292969-5.402344-2.394531zm0 0" fill="#e43c90"/><path d="m212.007812 151.25-24.984374 27.886719c-.882813.984375-.796876 2.492187.183593 3.375.984375.878906 2.492188.792969 3.371094-.1875l21.808594-24.339844zm0 0" fill="#e43c90"/><path d="m190.398438 179.0625c-.878907.980469-2.386719 1.066406-3.371094.183594-.015625-.015625-.03125-.035156-.046875-.050782-.832031.984376-.738281 2.449219.226562 3.316407.984375.878906 2.492188.792969 3.371094-.1875l21.808594-24.339844-.183594-3.257813zm0 0" fill="#ef6ea8"/><path d="m212.886719 166.847656-30.289063 33.808594c-.878906.984375-.796875 2.492188.1875 3.375.980469.878906 2.492188.792969 3.371094-.1875l27.113281-30.261719zm0 0" fill="#e43c90"/><path d="m185.980469 200.691406c-.878907.984375-2.390625 1.066406-3.371094.1875-.039063-.03125-.0625-.070312-.097656-.105468-.78125.984374-.675781 2.410156.269531 3.257812.980469.878906 2.492188.796875 3.371094-.183594l27.113281-30.261718-.179687-3.148438zm0 0" fill="#ef6ea8"/><path d="m240.976562 125.230469h-4.351562c-1.046875 0-1.894531-.847657-1.894531-1.894531 0-1.046876.847656-1.894532 1.894531-1.894532h4.351562c1.046876 0 1.894532.847656 1.894532 1.894532 0 1.046874-.847656 1.894531-1.894532 1.894531zm0 0" fill="#d0d2d3"/><path d="m240.976562 123.335938h-4.351562c-.699219 0-1.3125-.382813-1.636719-.949219-.164062.277343-.257812.601562-.257812.949219 0 1.046874.847656 1.894531 1.894531 1.894531h4.351562c1.046876 0 1.894532-.847657 1.894532-1.894531 0-.347657-.09375-.667969-.257813-.949219-.328125.566406-.9375.949219-1.636719.949219zm0 0" fill="#e6e7e8"/><path d="m240.976562 131.980469h-4.351562c-1.046875 0-1.894531-.847657-1.894531-1.890625 0-1.046875.847656-1.894532 1.894531-1.894532h4.351562c1.046876 0 1.894532.847657 1.894532 1.894532 0 1.042968-.847656 1.890625-1.894532 1.890625zm0 0" fill="#d0d2d3"/><path d="m240.976562 130.089844h-4.351562c-.699219 0-1.3125-.382813-1.636719-.949219-.164062.28125-.257812.601563-.257812.949219 0 1.042968.847656 1.890625 1.894531 1.890625h4.351562c1.046876 0 1.894532-.847657 1.894532-1.890625 0-.347656-.09375-.667969-.257813-.949219-.328125.566406-.9375.949219-1.636719.949219zm0 0" fill="#e6e7e8"/><path d="m280.621094 391.988281h-119.46875c-2.472656 0-4.472656-2.003906-4.472656-4.472656v-106.945313c0-2.46875 2.003906-4.472656 4.472656-4.472656h119.46875zm0 0" fill="#1cade3"/><path d="m320.445312 391.988281h-39.824218v-115.890625h39.824218c2.46875 0 4.472657 2.003906 4.472657 4.472656v106.945313c0 2.46875-2.003907 4.472656-4.472657 4.472656zm0 0" fill="#0099dc"/><path d="m158.085938 285.046875c-.523438 0-1.019532.183594-1.40625.5v46.035156h100.164062c.859375 0 1.644531-.492187 2.015625-1.269531l21.765625-54.214844zm0 0" fill="#0099dc"/><path d="m255.917969 308.09375h-117.320313c-1.808594 0-2.871094-2.039062-1.832031-3.523438l18.574219-26.5625c.839844-1.199218 2.207031-1.910156 3.667968-1.910156h121.613282l-21.035156 30.085938c-.839844 1.195312-2.207032 1.910156-3.667969 1.910156zm0 0" fill="#23c1e6"/><path d="m300.054688 331.582031h24.863281v-46.535156l-44.296875-8.949219 17.34375 54.050782c.335937.863281 1.164062 1.433593 2.089844 1.433593zm0 0" fill="#106ea0"/><path d="m339.003906 308.09375h-37.859375c-1.621093 0-3.113281-.878906-3.90625-2.292969l-16.617187-29.703125h41.675781c1.617187 0 3.113281.875 3.902344 2.289063l14.753906 26.375c.835937 1.492187-.242187 3.332031-1.949219 3.332031zm0 0" fill="#1cade3"/></svg>