<?xml version="1.0" encoding="utf-8"?>
<!-- Generator: Adobe Illustrator 21.0.2, SVG Export Plug-In . SVG Version: 6.00 Build 0)  -->
<svg version="1.1" id="Capa_1" xmlns="http://www.w3.org/2000/svg" xmlns:xlink="http://www.w3.org/1999/xlink" x="0px" y="0px"
	 viewBox="0 0 60 60" style="enable-background:new 0 0 60 60;" xml:space="preserve">
<style type="text/css">
	.st0{fill:#167ED3;}
</style>
<g>
	<path class="st0" d="M60,4.4C60,3.1,58.9,2,57.6,2H2.4C1.1,2,0,3.1,0,4.4V16h3v30v7.6C3,56,5,58,7.4,58H15h30h7.6
		c2.4,0,4.4-2,4.4-4.4V46V16h3V4.4z M7.4,56C6.1,56,5,54.9,5,53.6v-5.5c4.2,0.5,7.5,3.8,7.9,7.9H7.4z M55,53.6
		c0,1.3-1.1,2.4-2.4,2.4h-5.5c0.5-4.2,3.8-7.5,7.9-7.9V53.6z M55,46.1c-5.3,0.5-9.5,4.7-9.9,9.9H14.9c-0.5-5.3-4.7-9.5-9.9-9.9V16
		h50V46.1z M58,14h-1H3H2V4.4C2,4.2,2.2,4,2.4,4h55.2C57.8,4,58,4.2,58,4.4V14z"/>
	<circle class="st0" cx="9" cy="9" r="1"/>
	<circle class="st0" cx="6" cy="6" r="1"/>
	<circle class="st0" cx="12" cy="6" r="1"/>
	<circle class="st0" cx="6" cy="12" r="1"/>
	<circle class="st0" cx="12" cy="12" r="1"/>
	<circle class="st0" cx="15" cy="9" r="1"/>
	<circle class="st0" cx="21" cy="9" r="1"/>
	<circle class="st0" cx="18" cy="6" r="1"/>
	<circle class="st0" cx="24" cy="6" r="1"/>
	<circle class="st0" cx="18" cy="12" r="1"/>
	<circle class="st0" cx="24" cy="12" r="1"/>
	<circle class="st0" cx="27" cy="9" r="1"/>
	<circle class="st0" cx="33" cy="9" r="1"/>
	<circle class="st0" cx="30" cy="6" r="1"/>
	<circle class="st0" cx="36" cy="6" r="1"/>
	<circle class="st0" cx="30" cy="12" r="1"/>
	<circle class="st0" cx="36" cy="12" r="1"/>
	<circle class="st0" cx="39" cy="9" r="1"/>
	<circle class="st0" cx="45" cy="9" r="1"/>
	<circle class="st0" cx="42" cy="6" r="1"/>
	<circle class="st0" cx="48" cy="6" r="1"/>
	<circle class="st0" cx="42" cy="12" r="1"/>
	<circle class="st0" cx="48" cy="12" r="1"/>
	<circle class="st0" cx="51" cy="9" r="1"/>
	<circle class="st0" cx="54" cy="6" r="1"/>
	<circle class="st0" cx="54" cy="12" r="1"/>
	<path class="st0" d="M24.5,31h11c1.9,0,3.5-1.6,3.5-3.5V26c0-0.6-0.4-1-1-1s-1,0.4-1,1v1.5c0,0.8-0.7,1.5-1.5,1.5h-11
		c-0.8,0-1.5-0.7-1.5-1.5V26c0-0.6-0.4-1-1-1s-1,0.4-1,1v1.5C21,29.4,22.6,31,24.5,31z"/>
</g>
</svg>
