<?xml version="1.0" encoding="iso-8859-1"?>
<!-- Generator: Adobe Illustrator 19.0.0, SVG Export Plug-In . SVG Version: 6.00 Build 0)  -->
<svg version="1.1" id="Capa_1" xmlns="http://www.w3.org/2000/svg" xmlns:xlink="http://www.w3.org/1999/xlink" x="0px" y="0px"
	 viewBox="0 0 512 512" style="enable-background:new 0 0 512 512;" xml:space="preserve">
<circle style="fill:#1E499E;" cx="256" cy="256" r="256"/>
<path style="fill:#0E387C;" d="M510.085,287.364L369.52,146.799l-25.119,23.471l-89.025-89.025L62.755,273.866l86.53,86.531
	l-20.977,27.614L252.25,511.953C253.5,511.97,254.747,512,256,512C386.766,512,494.62,413.952,510.085,287.364z"/>
<path style="fill:#44C4FC;" d="M403.879,273.865v-44.118l-47.093-6.549c-3.19-13.821-8.647-26.771-15.948-38.452l28.682-37.948
	l-31.196-31.196l-37.948,28.682c-11.681-7.3-24.631-12.758-38.452-15.947l-6.549-47.093h-44.118l-6.549,47.093
	c-13.821,3.189-26.771,8.647-38.452,15.948l-37.948-28.682l-31.196,31.196l28.682,37.948c-7.3,11.681-12.758,24.631-15.947,38.452
	l-47.093,6.549v44.118l47.093,6.549c3.189,13.82,8.647,26.771,15.947,38.451l-28.682,37.948l31.196,31.197l37.948-28.682
	c11.681,7.301,24.631,12.758,38.452,15.948l6.549,47.093h44.118l6.549-47.093c13.821-3.189,26.771-8.647,38.452-15.947
	l37.948,28.682l31.197-31.196l-28.682-37.948c7.3-11.681,12.758-24.632,15.947-38.452L403.879,273.865z M233.317,323.479
	c-39.583,0-71.672-32.089-71.672-71.672s32.089-71.672,71.672-71.672s71.672,32.089,71.672,71.672S272.9,323.479,233.317,323.479z"
	/>
<path style="fill:#29ACE5;" d="M403.879,273.865v-44.118l-47.093-6.549c-3.189-13.821-8.647-26.771-15.948-38.452l28.682-37.948
	l-31.197-31.196l-37.948,28.682c-11.681-7.301-24.632-12.758-38.452-15.948l-6.549-47.093h-22.042v98.89
	c39.576,0.009,71.656,32.094,71.656,71.672s-32.08,71.663-71.656,71.672v98.89h22.043l6.549-47.093
	c13.821-3.189,26.771-8.647,38.452-15.947l37.948,28.682l31.197-31.197l-28.683-37.948c7.301-11.681,12.758-24.632,15.948-38.452
	L403.879,273.865z"/>
<circle style="fill:#F94616;" cx="312.46" cy="301.82" r="122.14"/>
<path style="fill:#DB2C09;" d="M312.459,179.683c-0.185,0-0.369,0.006-0.554,0.007v244.27c0.185,0.001,0.369,0.007,0.555,0.007
	c67.457,0,122.142-54.685,122.142-122.142C434.601,234.368,379.917,179.683,312.459,179.683z"/>
<path style="fill:#FFFFFF;" d="M324.613,345.709h-24.307v-32.135c0-15.218,8.568-29.238,21.827-35.717
	c7.984-3.9,12.839-12.168,12.373-21.062c-0.582-11.105-9.735-20.259-20.84-20.84c-6.144-0.325-11.966,1.819-16.401,6.028
	c-4.44,4.213-6.885,9.902-6.885,16.019h-24.307c0-12.665,5.27-24.931,14.461-33.651c9.32-8.844,21.537-13.342,34.405-12.669
	c23.359,1.225,42.616,20.482,43.84,43.841c0.98,18.646-9.216,35.986-25.973,44.173c-4.977,2.432-8.193,7.879-8.193,13.878
	L324.613,345.709L324.613,345.709z"/>
<path style="fill:#E0E0E0;" d="M358.779,255.522c-1.223-23.359-20.48-42.616-43.84-43.842c-1.016-0.053-2.027-0.063-3.034-0.051
	v24.306c0.584-0.014,1.171-0.013,1.762,0.019c11.104,0.582,20.257,9.736,20.84,20.84c0.465,8.894-4.39,17.161-12.373,21.062
	c-3.84,1.876-7.27,4.4-10.228,7.387v60.466h12.708v-32.135c0-5.999,3.216-11.446,8.192-13.878
	C349.562,291.508,359.758,274.168,358.779,255.522z"/>
<circle style="fill:#FFFFFF;" cx="312.26" cy="374.88" r="17.02"/>
<path style="fill:#E0E0E0;" d="M312.257,357.862c-0.119,0-0.234,0.015-0.352,0.018v33.994c0.118,0.002,0.233,0.018,0.352,0.018
	c9.397,0,17.015-7.618,17.015-17.015C329.271,365.48,321.654,357.862,312.257,357.862z"/>
<g>
</g>
<g>
</g>
<g>
</g>
<g>
</g>
<g>
</g>
<g>
</g>
<g>
</g>
<g>
</g>
<g>
</g>
<g>
</g>
<g>
</g>
<g>
</g>
<g>
</g>
<g>
</g>
<g>
</g>
</svg>
