<?xml version="1.0" encoding="utf-8"?>
<!-- Generator: Adobe Illustrator 21.0.2, SVG Export Plug-In . SVG Version: 6.00 Build 0)  -->
<svg version="1.1" id="Layer_1" xmlns="http://www.w3.org/2000/svg" xmlns:xlink="http://www.w3.org/1999/xlink" x="0px" y="0px"
	 viewBox="0 0 512 512" style="enable-background:new 0 0 512 512;" xml:space="preserve">
<style type="text/css">
	.st0{fill:#167ED3;}
</style>
<g>
	<g>
		<path class="st0" d="M376.9,140.2L484,168.3l27-107.1l-20.6-5.4l-17.6,66.8C428,50.2,347.9,2,256.5,2C116,2,2,116,2,256.5
			S116,511,256.5,511c93.8,0,175.7-50.7,219.8-126.2l-18.4-10c-40.6,69-115.6,115.3-201.4,115.3c-129,0-233.6-104.6-233.6-233.6
			S127.5,22.9,256.5,22.9c86.5,0,162.2,47.1,202.5,117.1l-76.7-20.4L376.9,140.2z"/>
		<path class="st0" d="M267.7,369.4V350c18.4-1,32.4-6.4,43.2-16.2c10.8-9.8,16.2-22.7,16.2-37.8c0-16.2-4.4-28.2-14-35.7
			c-9.8-8.6-23.8-15.2-44.4-19.4h-1v-49.8c14,2.2,26,6.4,37.8,15.2l17.3-23.8c-17.3-11.9-35.7-18.4-55.2-19.4v-13h-16.2v13
			c-16.2,1-30.3,6.4-41.1,16.2c-10.8,9.8-16.2,22.7-16.2,37.8c0,15.1,4.4,27,14,34.6c8.6,7.6,23.8,14,43.2,18.4v50.8
			c-15.2-2.2-30.3-9.8-45.4-22.7l-19.4,22.7c19.4,17.3,41.1,27,64.9,29.2v19.4L267.7,369.4L267.7,369.4z M268.8,275.3
			c10.8,3.2,17.3,6.4,21.6,9.8c3.2,4.4,5.4,8.6,5.4,15.2s-2.2,10.8-7.6,15.2c-5.4,4.4-11.9,6.4-19.4,7.6V275.3z M230.9,228.9
			c-3.2-3.2-5.4-8.6-5.4-14c0-6.4,2.2-10.8,6.4-15.2c5.4-4.4,10.8-6.4,19.4-7.6v46.5C240.6,235.3,234.2,232.1,230.9,228.9z"/>
	</g>
</g>
</svg>
