<svg xmlns="http://www.w3.org/2000/svg" width="84" height="42" viewBox="0 0 84 42"><path fill="#EA4335" d="M45.6 12l6.4 5c1.6-4.8 6.1-8.3 11.3-8.3 3.7 0 6.3 1.6 7.7 3l5.6-5.5C73.3 3 68.8 1 63.4 1c-7.8 0-14.5 4.5-17.8 11z"/><path fill="#4285F4" d="M70.3 31.3l6.3 4.9c3.8-3.5 5.9-8.6 5.9-14.7 0-1.6-.1-2.8-.4-4.1H63.4v7.4h11c-.3 1.8-1.5 4.6-4.1 6.5z"/><path fill="#FBBC05" d="M45.6 12c-1.3 2.7-2.1 5.8-2.1 9s.8 6.3 2.1 9l6.5-5c-.4-1.2-.7-2.6-.7-4s.2-2.7.6-4l-6.4-5z"/><path fill="#34A853" d="M63.4 33.3c-5.3 0-9.7-3.5-11.3-8.3l-6.4 5c3.3 6.5 10 11 17.8 11 5.4 0 9.9-1.8 13.2-4.8l-6.3-4.9c-1.8 1.1-4 2-7 2z"/><path fill="#FFF" d="M39.7 42c1.3 0 2.3-1 2.3-2.3V2.3C42 1 41 0 39.7 0H2.3C1 0 0 1 0 2.3v37.4C0 41 1 42 2.3 42h37.4z"/><path fill="#3D5A98" d="M29 42V25.7h5.5l.8-6.3H29v-4c0-1.8.5-3.1 3.1-3.1h3.4V6.6c-.6-.1-2.6-.2-4.9-.2-4.8 0-8.2 3-8.2 8.4v4.7H17v6.3h5.5V42H29z"/></svg>