<svg width="106" height="16" viewBox="0 0 106 16" xmlns="http://www.w3.org/2000/svg"><path d="M24.077 9.422c-.006.035-.674 3.532-2.167 3.532-.487 0-.75-.356-.784-1.06-.09-1.877 1.52-4.221 2.378-4.625.022-.007.035 0 .038.002l.011.007-.001.013c-.028.32-.073 1.42.511 2.102.009.01.011.013.013.017l.002.006v.006zm2.839-1.085c-.339.175-.829.295-1.173.335.002-.016.028-.544.028-.697 0-1.081-.43-2.23-1.226-2.23-.575 0-.715.44-.757.54-.437-.027-2.689.009-4.07 3.262a.648.648 0 0 1-.289.064c-.292.009-.538-.19-.538-.627 0-.66.377-1.716.88-2.462-.097-.455-.552-.726-.94-.726a.894.894 0 0 0-.417.102c-1.46.887-2.46 2.597-2.684 2.891l-.048-.022c.119-.432.238-.89.238-1.302 0-.371-.094-.652-.281-.833-.256-.25-.618-.249-.757-.247-.026.002-.131-.007-.527.037.544-.917.895-1.9.895-2.9 0-1.096-.481-2.004-1.39-2.625C12.998.31 11.801 0 10.396 0c-2.761 0-5.4.993-7.434 2.795C1.108 4.44 0 6.593 0 8.552c0 1.205.69 2.502 2.204 2.502a2.3 2.3 0 0 0 .576-.075 4.712 4.712 0 0 1-.109-1.023c0-1.747.871-3.725 2.33-5.292 1.593-1.71 3.588-2.65 5.62-2.65 1.33 0 2.76.668 2.76 2.137 0 .548-.147 1.435-.848 2.547-1.239 1.966-3.313 3.23-3.744 3.57.122-.373.218-.725.815-2.385.551-1.531.941-2.666.941-3.321 0-.637-.617-.954-1.23-.987-.27-.014-.502.028-.534.057.426.383-.139 1.442-.992 3.043-.986 1.848-2.336 4.38-2.328 6.506C5.467 14.522 6.256 15 6.993 15c.486 0 .997-.202 1.233-.328-.203-1.171.045-2.271.254-3.269l.014-.003c1.172-.318 4.16-2.275 5.74-4.778.372 0 .553.187.553.446 0 .187.003.356-.575 1.59-.647 1.38-1.543 3.097-1.543 4.29 0 .871.372 1.313 1.104 1.313.464 0 1.023-.22 1.224-.339-.548-2.357 1.494-5.036 2.368-6.218l.04.018c-.097.351-.265.84-.265 1.448 0 1.14.633 1.263.904 1.263.55 0 1.228-.422 1.582-.657-.246.694-.406 1.36-.406 2.107 0 1.212.533 2.508 2.028 2.508 1.036 0 2.018-.623 2.919-1.852a10.503 10.503 0 0 0 1.427-2.806l.004-.01.01-.004c.433-.142.782-.236 1.257-.623.214-.21.128-.618.05-.759zm6.924 5.723L30.36 5.6h1.632l2.532 6.456 2.52-6.456h1.596l-3.48 8.46h-1.32zm6.24-.06V5.6h6.228v1.32h-4.752v2.184h4.212v1.332h-4.212v2.244h4.812V14H40.08zm8.04 0V5.6h3.744c1.056 0 1.884.312 2.424.84.444.456.696 1.08.696 1.812v.024c0 1.38-.828 2.208-1.992 2.544L55.26 14h-1.752l-2.064-2.928h-1.848V14H48.12zm1.476-4.236h2.16c1.056 0 1.728-.552 1.728-1.404v-.024c0-.9-.648-1.392-1.74-1.392h-2.148v2.82zM56.88 14V5.6h1.476V14H56.88zm3.72 0V5.6h6.252v1.344h-4.776v2.292h4.236v1.344h-4.236V14H60.6zm7.956 0V5.6h1.476V14h-1.476zm3.72 0V5.6h6.228v1.32h-4.752v2.184h4.212v1.332h-4.212v2.244h4.812V14h-6.288zm8.04 0V5.6h3.132c2.64 0 4.464 1.812 4.464 4.176V9.8c0 2.364-1.824 4.2-4.464 4.2h-3.132zm3.132-7.056h-1.656v5.712h1.656c1.764 0 2.916-1.188 2.916-2.832V9.8c0-1.644-1.152-2.856-2.916-2.856zM93.384 14V5.6h1.476V14h-1.476zm3.72 0V5.6h1.368l4.5 5.808V5.6h1.452V14h-1.236l-4.632-5.976V14h-1.452z" fill="#222" fill-rule="evenodd"/></svg>